#!OML:ASF X:\für Bonn\!DataBase\2005_08_12_Daniel\c3d\Daniel.ASF
:FULLY-SPECIFIED
:DEGREES
176
root 1.98676 16.0668 2.69745 892.076 -40.6806 -179.606
lowerback 33.4655 -4.39724 8.16998
upperback 8.94233 -4.84833 -1.28144
thorax -7.70678 -3.06646 -3.80439
lowerneck -5.56291 2.69958 -2.73693
upperneck -1.50423 3.68833 -2.039
head 0.438465 1.79925 -0.10138
rclavicle 3.90115e-015 2.38293e-014
rhumerus -41.2317 -4.84329 -87.0648
rradius 68.3819
rwrist 8.42286
rhand -33.9055 8.11439
rfingers 7.12502
rthumb -7.08838 -21.7469
lclavicle 3.90115e-015 2.38293e-014
lhumerus -28.934 18.8121 82.1882
lradius 72.2124
lwrist -24.1771
lhand -26.9423 3.68565
lfingers 7.12502
lthumb -0.364388 33.6651
rfemur -36.9979 -0.637902 24.3304
rtibia 49.2803
rfoot -8.07709 5.67155
rtoes -6.28537
lfemur 16.7797 2.80962 -22.5154
ltibia 50.0554
lfoot -20.9862 -3.93479
ltoes -7.48294
177
root 1.89928 16.084 2.58283 892.173 -40.5909 -179.523
lowerback 33.582 -4.45972 8.48012
upperback 8.88995 -4.8059 -1.23747
thorax -7.8084 -3.05024 -3.92554
lowerneck -5.67655 2.69223 -3.02217
upperneck -1.5494 3.69437 -1.92769
head 0.435846 1.80301 -0.0201289
rclavicle -9.89202e-014 3.54334e-014
rhumerus -41.224 -4.96441 -86.8979
rradius 68.403
rwrist 8.33573
rhand -33.9166 7.95885
rfingers 7.12502
rthumb -7.0991 -21.9021
lclavicle -9.89202e-014 3.54334e-014
lhumerus -28.9824 18.7008 82.1823
lradius 72.1988
lwrist -24.055
lhand -26.8995 3.76632
lfingers 7.12502
lthumb -0.323026 33.7458
rfemur -36.8502 -0.878252 24.4982
rtibia 49.6882
rfoot -8.44052 6.15201
rtoes -5.96997
lfemur 16.2175 2.83178 -22.3376
ltibia 51.0892
lfoot -19.0827 -4.11575
ltoes -7.6595
178
root 1.81371 16.1011 2.46888 892.222 -40.5192 -179.458
lowerback 33.8301 -4.53183 8.78078
upperback 8.75162 -4.76333 -1.21644
thorax -7.93062 -3.03606 -4.04647
lowerneck -5.76878 2.68536 -3.24875
upperneck -1.54297 3.70014 -1.87277
head 0.44793 1.80562 0.0348837
rclavicle -7.95139e-016 -9.24349e-015
rhumerus -41.2446 -5.08131 -86.7264
rradius 68.4521
rwrist 8.19852
rhand -33.8964 7.79627
rfingers 7.12502
rthumb -7.07952 -22.0653
lclavicle -7.95139e-016 -9.24349e-015
lhumerus -29.0503 18.5629 82.1576
lradius 72.1774
lwrist -23.9661
lhand -26.8436 3.77987
lfingers 7.12502
lthumb -0.269065 33.7594
rfemur -36.6265 -1.14629 24.6489
rtibia 50.068
rfoot -8.86027 6.63975
rtoes -5.75748
lfemur 15.6198 2.90969 -22.0929
ltibia 52.2391
lfoot -17.1918 -4.36196
ltoes -7.80985
179
root 1.72928 16.1179 2.35538 892.205 -40.4646 -179.37
lowerback 34.0073 -4.58715 9.05045
upperback 8.72782 -4.72666 -1.17074
thorax -8.0212 -3.02578 -4.13869
lowerneck -5.86011 2.68133 -3.46966
upperneck -1.57447 3.70797 -1.80307
head 0.447997 1.80985 0.0931713
rclavicle -2.31087e-014 -2.94201e-014
rhumerus -41.2315 -5.1988 -86.5585
rradius 68.4865
rwrist 8.10923
rhand -33.9045 7.65584
rfingers 7.12502
rthumb -7.08737 -22.2055
lclavicle -2.31087e-014 -2.94201e-014
lhumerus -29.0734 18.4483 82.1911
lradius 72.1435
lwrist -23.9172
lhand -26.7914 3.7939
lfingers 7.12502
lthumb -0.21861 33.7735
rfemur -36.3199 -1.44332 24.8171
rtibia 50.4114
rfoot -9.29856 7.12769
rtoes -5.76206
lfemur 14.9971 2.98494 -21.8012
ltibia 53.5021
lfoot -15.3642 -4.62758
ltoes -7.88138
180
root 1.6462 16.1353 2.24676 892.218 -40.4198 -179.327
lowerback 34.2017 -4.6414 9.27133
upperback 8.67414 -4.69571 -1.12918
thorax -8.15043 -3.01785 -4.20563
lowerneck -5.86844 2.68423 -3.65113
upperneck -1.61185 3.7201 -1.77294
head 0.433871 1.81671 0.131703
rclavicle -5.26779e-015 2.56432e-014
rhumerus -41.2535 -5.26318 -86.3881
rradius 68.542
rwrist 8.008
rhand -33.8913 7.4746
rfingers 7.12502
rthumb -7.0746 -22.3872
lclavicle -5.26779e-015 2.56432e-014
lhumerus -29.1018 18.3866 82.2417
lradius 72.0519
lwrist -23.9459
lhand -26.7717 3.76503
lfingers 7.12502
lthumb -0.199542 33.7447
rfemur -36.0181 -1.78998 24.9373
rtibia 50.7242
rfoot -9.7093 7.65022
rtoes -5.7532
lfemur 14.2858 3.04485 -21.5724
ltibia 54.8663
lfoot -13.626 -4.7933
ltoes -7.96463
181
root 1.56421 16.1535 2.13994 892.178 -40.3782 -179.264
lowerback 34.3947 -4.68923 9.5261
upperback 8.64442 -4.65231 -1.12235
thorax -8.25478 -3.00433 -4.33283
lowerneck -5.8574 2.68365 -3.67254
upperneck -1.63364 3.71884 -1.79426
head 0.425287 1.8161 0.128207
rclavicle 2.15681e-014 -2.32578e-014
rhumerus -41.3058 -5.43571 -86.2575
rradius 68.6223
rwrist 7.94932
rhand -33.8485 7.29188
rfingers 7.12502
rthumb -7.03332 -22.5713
lclavicle 2.15681e-014 -2.32578e-014
lhumerus -29.1313 18.247 82.2691
lradius 72
lwrist -23.9649
lhand -26.7377 3.69211
lfingers 7.12502
lthumb -0.166726 33.6718
rfemur -35.6362 -2.1556 25.0673
rtibia 50.993
rfoot -10.1393 8.18013
rtoes -5.8833
lfemur 13.5633 3.06916 -21.3431
ltibia 56.3094
lfoot -12.025 -5.00298
ltoes -8.17812
182
root 1.48345 16.1734 2.03362 892.174 -40.3412 -179.241
lowerback 34.5463 -4.71717 9.70172
upperback 8.6228 -4.61358 -1.11043
thorax -8.3322 -2.99169 -4.41509
lowerneck -5.83003 2.70298 -3.60029
upperneck -1.68739 3.73641 -1.87957
head 0.406749 1.8243 0.0897411
rclavicle -1.71949e-014 2.08724e-014
rhumerus -41.3152 -5.56602 -86.1451
rradius 68.6877
rwrist 7.909
rhand -33.814 7.09282
rfingers 7.12502
rthumb -7.00002 -22.7714
lclavicle -1.71949e-014 2.08724e-014
lhumerus -29.0987 18.1634 82.3189
lradius 71.8988
lwrist -24.0288
lhand -26.7096 3.54344
lfingers 7.12502
lthumb -0.139563 33.5231
rfemur -35.2588 -2.50025 25.1558
rtibia 51.2361
rfoot -10.5648 8.6652
rtoes -6.02125
lfemur 12.7817 3.05573 -21.1739
ltibia 57.8008
lfoot -10.6283 -5.24453
ltoes -8.64041
183
root 1.40358 16.1929 1.92732 892.101 -40.3114 -179.173
lowerback 34.7098 -4.75314 9.89479
upperback 8.60667 -4.57902 -1.09564
thorax -8.40793 -2.98194 -4.50103
lowerneck -5.7857 2.72178 -3.50995
upperneck -1.73556 3.75189 -1.9829
head 0.387891 1.83133 0.0426858
rclavicle -3.97569e-015 -1.8487e-014
rhumerus -41.3369 -5.68706 -86.0344
rradius 68.7489
rwrist 7.88268
rhand -33.7355 6.94341
rfingers 7.12502
rthumb -6.92426 -22.9233
lclavicle -3.97569e-015 -1.8487e-014
lhumerus -29.0897 18.0714 82.3451
lradius 71.8481
lwrist -24.0207
lhand -26.6348 3.40504
lfingers 7.12502
lthumb -0.0673582 33.3848
rfemur -34.8166 -2.84808 25.2717
rtibia 51.4434
rfoot -10.9921 9.16173
rtoes -6.20722
lfemur 12.0022 3.03704 -20.9466
ltibia 59.3283
lfoot -9.47538 -5.6066
ltoes -9.44767
184
root 1.32553 16.2109 1.82199 892.035 -40.3046 -179.149
lowerback 34.882 -4.77725 10.0451
upperback 8.59467 -4.54462 -1.09646
thorax -8.48224 -2.97188 -4.58133
lowerneck -5.76501 2.7419 -3.36421
upperneck -1.73169 3.76997 -2.08003
head 0.390051 1.83898 -0.0102918
rclavicle 1.0476e-013 -3.3197e-014
rhumerus -41.3507 -5.82325 -85.9349
rradius 68.8196
rwrist 7.83593
rhand -33.6709 6.88704
rfingers 7.12502
rthumb -6.8619 -22.9818
lclavicle 1.0476e-013 -3.3197e-014
lhumerus -29.0492 17.9445 82.3499
lradius 71.7646
lwrist -24.0379
lhand -26.5523 3.24542
lfingers 7.12502
lthumb 0.0123262 33.2252
rfemur -34.3595 -3.16873 25.3349
rtibia 51.6544
rfoot -11.4218 9.60119
rtoes -6.2374
lfemur 11.2069 3.0433 -20.7148
ltibia 60.872
lfoot -8.52087 -5.98976
ltoes -10.3703
